<svg width="80" height="98" viewBox="0 0 80 98" fill="none" xmlns="http://www.w3.org/2000/svg">
<path d="M30.6484 15.0879C36.0496 10.5301 43.9504 10.5301 49.3516 15.0879L69.3516 31.9648C72.6163 34.7199 74.5 38.775 74.5 43.0469V64C74.5 72.0081 68.0081 78.5 60 78.5H20C11.9919 78.5 5.5 72.0081 5.5 64V43.0469C5.5 38.9083 7.26782 34.9732 10.3467 32.2266L10.6484 31.9648L30.6484 15.0879Z" stroke="#088D9A" stroke-width="11" stroke-miterlimit="1.41421"/>
<path d="M53 59.9277C53 67.0675 47.1797 76 40 76C32.8203 76 27 67.0675 27 59.9277C27 52.7879 32.8203 47 40 47C47.1797 47 53 52.7879 53 59.9277Z" stroke="#088D9A" stroke-width="11"/>
<path d="M37.8486 95.7871C39.0266 96.9989 40.9733 96.9989 42.1513 95.7871L55.3584 82.1982C57.2069 80.2964 55.8592 77.1074 53.207 77.1074H26.7929C24.1407 77.1074 22.7931 80.2964 24.6416 82.1982L37.8486 95.7871Z" fill="#088D9A"/>
<path d="M37.8486 95.7871C39.0266 96.9989 40.9733 96.9989 42.1513 95.7871L55.3584 82.1982C57.2069 80.2964 55.8592 77.1074 53.207 77.1074H26.7929C24.1407 77.1074 22.7931 80.2964 24.6416 82.1982L37.8486 95.7871Z" stroke="#088D9A"/>
</svg>
