<svg id="eP8GCioWQaw1" xmlns="http://www.w3.org/2000/svg" xmlns:xlink="http://www.w3.org/1999/xlink" viewBox="0 0 300 300" shape-rendering="geometricPrecision" text-rendering="geometricPrecision" project-id="9277850c6fff40238addda9b10338c62" export-id="2b13ac5918d148509596d174ee670c63" cached="false"><defs><filter id="eP8GCioWQaw2-filter" x="-150%" y="-150%" width="400%" height="400%"><feColorMatrix id="eP8GCioWQaw2-filter-hue-rotate-0" type="hueRotate" values="325" result="result"/></filter></defs><g transform="matrix(1.268798 0 0 1.268804-40.319708-35.650181)" filter="url(#eP8GCioWQaw2-filter)"><path d="M50,17.14c-14.005941,0-25.36,11.354059-25.36,25.36C24.64,56.5,50,82.86,50,82.86s25.36-26.35,25.36-40.36c0-14.005941-11.354059-25.36-25.36-25.36Zm0,35.3c-4.237446-.000017-8.057072-2.554209-9.675856-6.470264s-.717502-8.421733,2.28312-11.413758s7.508868-3.880374,11.420262-2.25036s6.454616,5.456953,6.442474,9.694382C60.453465,47.770702,55.770726,52.440024,50,52.44Z" transform="matrix(2.10799 0 0 2.10799 44.600498 85.933601)" fill="#5483cc"/><g transform="matrix(4.322041 0 0 4.052471-97.711204-189.53553)"><g><g><path d="" fill="none" stroke="#5483cc" stroke-width="4" stroke-linecap="round" stroke-linejoin="round"/></g><path d="M70,87h10c1.104569,0,2-.895431,2-2v-17.7l-18-18-18,18v17.7c0,1.104569.895431,2,2,2h10l12-.000001" transform="matrix(1.082173 0 0 1.082173-11.945594 3.141288)" fill="none" stroke="#5483cc" stroke-width="4" stroke-linecap="round" stroke-linejoin="round"/><g transform="translate(0 16.388891)" opacity="0"><path d="M0,6v-6h6" transform="matrix(.707107 0.707107-.707107 0.707107 64 73.166666)" fill="none" stroke="#5483cc" stroke-width="3.33" stroke-linecap="round" stroke-linejoin="round"/><path d="M70,89.166667v12.499999" transform="translate(-6-15.166667)" fill="#ffd41d" stroke="#5483cc" stroke-width="3.33" stroke-linecap="round" stroke-linejoin="round"/></g></g></g></g></svg>
