<svg id="e4SWDCHpVFZ1" xmlns="http://www.w3.org/2000/svg" xmlns:xlink="http://www.w3.org/1999/xlink" viewBox="0 0 300 300" shape-rendering="geometricPrecision" text-rendering="geometricPrecision" project-id="9277850c6fff40238addda9b10338c62" export-id="030a7650421b4b3083b8a6a47619cd90" cached="false"><defs><filter id="e4SWDCHpVFZ2-filter" x="-150%" y="-150%" width="400%" height="400%"><feColorMatrix id="e4SWDCHpVFZ2-filter-hue-rotate-0" type="hueRotate" values="325" result="result"/></filter><filter id="e4SWDCHpVFZ8-filter" x="-150%" y="-150%" width="400%" height="400%"><feColorMatrix id="e4SWDCHpVFZ8-filter-hue-rotate-0" type="hueRotate" values="325" result="result"/></filter></defs><g transform="matrix(1.268798 0 0 1.268804-40.319708-35.132672)" filter="url(#e4SWDCHpVFZ2-filter)"><g transform="matrix(4.322041 0 0 4.052471-97.711204-189.53553)"><g><g><path d="" fill="none" stroke="#5483cc" stroke-width="4" stroke-linecap="round" stroke-linejoin="round"/></g></g></g></g><g transform="matrix(1.268798 0 0 1.268804-40.319708-35.132672)" filter="url(#e4SWDCHpVFZ8-filter)"><g transform="matrix(4.322041 0 0 4.052471-97.711204-189.53553)"><g><g><path d="" fill="none" stroke="#5483cc" stroke-width="4" stroke-linecap="round" stroke-linejoin="round"/></g></g><g transform="matrix(1.000002 0 0 1.037044-.000128-2.370816)"><g><path d="" fill="none" stroke="#5483cc" stroke-width="4" stroke-linecap="round" stroke-linejoin="round"/></g></g><g transform="matrix(.942612 0 0 0.93771 3.289092 5.931407)"><g><path d="" fill="none" stroke="#5483cc" stroke-width="4" stroke-linecap="round" stroke-linejoin="round"/></g></g></g></g><path d="M50,17.14c-14.005941,0-25.36,11.354059-25.36,25.36C24.64,56.5,50,82.86,50,82.86s25.36-26.35,25.36-40.36c0-14.005941-11.354059-25.36-25.36-25.36Zm0,35.3c-4.237446-.000017-8.057072-2.554209-9.675856-6.470264s-.717502-8.421733,2.28312-11.413758s7.508868-3.880374,11.420262-2.25036s6.454616,5.456953,6.442474,9.694382C60.453465,47.770702,55.770726,52.440024,50,52.44Z" transform="matrix(4.725238 0 0 4.538273-86.2619-76.041301)" fill="#5483cc"/></svg>
