<svg width="18" height="18" viewBox="0 0 18 18" fill="none" xmlns="http://www.w3.org/2000/svg">
<path d="M2.25 8.52631C1.62 8.52631 1.0875 8.29737 0.6525 7.83947C0.2175 7.38158 0 6.82105 0 6.15789C0 5.49474 0.2175 4.93421 0.6525 4.47632C1.0875 4.01842 1.62 3.78947 2.25 3.78947C2.88 3.78947 3.4125 4.01842 3.8475 4.47632C4.2825 4.93421 4.5 5.49474 4.5 6.15789C4.5 6.82105 4.2825 7.38158 3.8475 7.83947C3.4125 8.29737 2.88 8.52631 2.25 8.52631ZM6.3 4.73684C5.67 4.73684 5.1375 4.50789 4.7025 4.05C4.2675 3.5921 4.05 3.03158 4.05 2.36842C4.05 1.70526 4.2675 1.14474 4.7025 0.686842C5.1375 0.228947 5.67 0 6.3 0C6.93 0 7.4625 0.228947 7.8975 0.686842C8.3325 1.14474 8.55 1.70526 8.55 2.36842C8.55 3.03158 8.3325 3.5921 7.8975 4.05C7.4625 4.50789 6.93 4.73684 6.3 4.73684ZM11.7 4.73684C11.07 4.73684 10.5375 4.50789 10.1025 4.05C9.6675 3.5921 9.45 3.03158 9.45 2.36842C9.45 1.70526 9.6675 1.14474 10.1025 0.686842C10.5375 0.228947 11.07 0 11.7 0C12.33 0 12.8625 0.228947 13.2975 0.686842C13.7325 1.14474 13.95 1.70526 13.95 2.36842C13.95 3.03158 13.7325 3.5921 13.2975 4.05C12.8625 4.50789 12.33 4.73684 11.7 4.73684ZM15.75 8.52631C15.12 8.52631 14.5875 8.29737 14.1525 7.83947C13.7175 7.38158 13.5 6.82105 13.5 6.15789C13.5 5.49474 13.7175 4.93421 14.1525 4.47632C14.5875 4.01842 15.12 3.78947 15.75 3.78947C16.38 3.78947 16.9125 4.01842 17.3475 4.47632C17.7825 4.93421 18 5.49474 18 6.15789C18 6.82105 17.7825 7.38158 17.3475 7.83947C16.9125 8.29737 16.38 8.52631 15.75 8.52631ZM4.185 18C3.51 18 2.9436 17.7278 2.4858 17.1834C2.028 16.6389 1.7994 15.9954 1.8 15.2526C1.8 14.4316 2.0664 13.7132 2.5992 13.0974C3.132 12.4816 3.6606 11.8737 4.185 11.2737C4.62 10.7842 4.995 10.2515 5.31 9.67547C5.625 9.09947 6 8.55853 6.435 8.05263C6.765 7.6421 7.1475 7.30263 7.5825 7.03421C8.0175 6.76579 8.49 6.63158 9 6.63158C9.51 6.63158 9.9825 6.75789 10.4175 7.01053C10.8525 7.26316 11.235 7.59474 11.565 8.00526C11.985 8.51053 12.3564 9.05526 12.6792 9.63947C13.002 10.2237 13.3806 10.7684 13.815 11.2737C14.34 11.8737 14.8686 12.4816 15.4008 13.0974C15.933 13.7132 16.1994 14.4316 16.2 15.2526C16.2 15.9947 15.9711 16.6383 15.5133 17.1834C15.0555 17.7284 14.4894 18.0006 13.815 18C13.005 18 12.2025 17.9289 11.4075 17.7868C10.6125 17.6447 9.81 17.5737 9 17.5737C8.19 17.5737 7.3875 17.6447 6.5925 17.7868C5.7975 17.9289 4.995 18 4.185 18Z" fill="#314158" fill-opacity="0.2"/>
<rect x="16.9028" width="1.53734" height="23.9042" transform="rotate(45 16.9028 0)" fill="#314158"/>
</svg>
