<svg width="24" height="18" viewBox="0 0 24 18" fill="none" xmlns="http://www.w3.org/2000/svg">
<path d="M12 18C11.2616 18 10.6375 17.7441 10.1277 17.2324C9.61786 16.7206 9.36294 16.0941 9.36294 15.3529C9.36294 14.6118 9.61786 13.9853 10.1277 13.4735C10.6375 12.9618 11.2616 12.7059 12 12.7059C12.7384 12.7059 13.3625 12.9618 13.8723 13.4735C14.3821 13.9853 14.6371 14.6118 14.6371 15.3529C14.6371 16.0941 14.3821 16.7206 13.8723 17.2324C13.3625 17.7441 12.7384 18 12 18ZM12 6.35294C13.3185 6.35294 14.5713 6.56471 15.7583 6.98824C16.9454 7.41177 18.022 7.99412 18.9882 8.73529C19.3398 9 19.5202 9.34871 19.5293 9.78141C19.5385 10.2141 19.3845 10.5889 19.0673 10.9059C18.7684 11.2059 18.3993 11.3605 17.9598 11.3696C17.5202 11.3788 17.1247 11.2595 16.7731 11.0118C16.105 10.5529 15.3666 10.1912 14.5579 9.92647C13.7492 9.66177 12.8966 9.52941 12 9.52941C11.1034 9.52941 10.2508 9.66177 9.44205 9.92647C8.63336 10.1912 7.89498 10.5529 7.22693 11.0118C6.87532 11.2588 6.47976 11.3735 6.04025 11.3559C5.60074 11.3382 5.23155 11.1794 4.93269 10.8794C4.63382 10.5618 4.48439 10.1869 4.48439 9.75494C4.48439 9.32294 4.66019 8.97424 5.0118 8.70882C5.97872 7.96765 7.05569 7.38953 8.24272 6.97447C9.42975 6.55941 10.6822 6.35224 12 6.35294ZM12 0C14.1975 0 16.2678 0.361765 18.2108 1.08529C20.1538 1.80882 21.8985 2.83235 23.4448 4.15588C23.7964 4.45588 23.981 4.82647 23.9986 5.26765C24.0162 5.70882 23.8668 6.08824 23.5503 6.40588C23.2514 6.70588 22.8823 6.86047 22.4427 6.86965C22.0032 6.87882 21.6077 6.74188 21.2561 6.45882C19.9903 5.41765 18.5708 4.61047 16.9978 4.03729C15.4247 3.46412 13.7587 3.17718 12 3.17647C10.2413 3.17576 8.57569 3.46271 7.0033 4.03729C5.43091 4.61188 4.01112 5.41906 2.74393 6.45882C2.39232 6.74118 1.99676 6.87812 1.55725 6.86965C1.11774 6.86118 0.748554 6.70659 0.449688 6.40588C0.133241 6.08824 -0.0161925 5.70882 0.00138793 5.26765C0.0189683 4.82647 0.203562 4.45588 0.55517 4.15588C2.10224 2.83235 3.84727 1.80882 5.79026 1.08529C7.73324 0.361765 9.80316 0 12 0Z" fill="#314158" fill-opacity="0.2"/>
<rect x="20.9028" width="1.53734" height="23.9042" transform="rotate(45 20.9028 0)" fill="#314158"/>
</svg>
