<svg width="106" height="106" viewBox="0 0 106 106" fill="none" xmlns="http://www.w3.org/2000/svg">
<path d="M37.7773 5.5C55.7516 5.5 70.0556 19.625 70.0557 36.7236C70.0557 53.8223 55.7516 67.9473 37.7773 67.9473C19.8033 67.947 5.5 53.8222 5.5 36.7236C5.50002 19.6251 19.8033 5.50023 37.7773 5.5Z" stroke="white" stroke-width="11"/>
<path d="M67.0021 59.7185L63.0869 55.8557L55.2564 63.5813L59.1716 67.444L67.0021 59.7185ZM96.0848 103.863C98.2471 105.996 101.753 105.996 103.915 103.863C106.078 101.729 106.078 98.2706 103.915 96.1372L96.0848 103.863ZM63.0869 63.5813L59.1716 67.444L96.0848 103.863L100 100L103.915 96.1372L67.0021 59.7185L63.0869 63.5813Z" fill="white"/>
</svg>
